<svg width="182" height="40" viewBox="0 0 182 40" fill="none" xmlns="http://www.w3.org/2000/svg">
<path d="M25.0028 12.4116H12.4571V24.9115H0V39.7525H1.24127C3.05885 39.7525 4.8321 39.3991 6.51669 38.7366C8.20127 38.0299 9.70853 37.0581 10.9941 35.7772C11.5261 35.2472 12.0138 34.673 12.4571 34.0546V39.7966H13.6983C15.5159 39.7966 17.2892 39.4433 18.9738 38.7807C20.6583 38.074 22.1656 37.1023 23.4512 35.8214C24.0275 35.2472 24.5595 34.6288 25.0471 33.9663V39.7525H26.2884C28.106 39.7525 29.8349 39.3991 31.5195 38.7366C33.2041 38.0299 34.667 37.0581 35.9526 35.7772C37.2382 34.4963 38.2135 33.0387 38.9228 31.3603C39.6321 29.6818 39.9424 27.9592 39.9424 26.1483V24.9115H34.002C34.667 24.4257 35.2876 23.9398 35.8639 23.3214C37.1495 22.0405 38.1692 20.5388 38.8341 18.8603C39.5434 17.2261 39.8981 15.4593 39.8981 13.6483V12.4116H34.2237C34.8443 11.9699 35.4206 11.484 35.9526 10.954C37.2382 9.6731 38.2578 8.17134 38.9228 6.4929C39.6321 4.81446 39.9867 3.04769 39.9867 1.23674V0H25.0028V12.4116ZM12.4571 27.5175C12.3241 28.5334 12.0581 29.461 11.7034 30.3885C11.1271 31.7578 10.3292 32.9504 9.26522 34.0104C8.20127 35.0705 6.96 35.8656 5.58573 36.4398C4.61045 36.8373 3.5465 37.1023 2.48255 37.2348V27.3409H12.4571V27.5175ZM14.8953 14.8409H24.8698V15.0176C24.7368 16.0335 24.4708 17.0052 24.1162 17.8886C23.5399 19.2579 22.6976 20.4946 21.678 21.5547C20.6583 22.6147 19.3727 23.4098 17.9985 23.984C17.0232 24.3815 15.9592 24.6465 14.8953 24.779V14.8409ZM24.9141 21.5988V24.9115H21.545C22.2099 24.4257 22.8306 23.9398 23.4512 23.3214C23.9388 22.7914 24.4708 22.2172 24.9141 21.5988ZM24.1162 30.3885C23.5399 31.7578 22.7419 32.9504 21.678 34.0104C20.614 35.0705 19.3727 35.8656 17.9985 36.4398C17.0232 36.8373 15.9592 37.1023 14.8953 37.2348V27.7384C14.8953 27.6059 14.9396 27.4734 14.9396 27.385H24.9141C24.8255 28.4009 24.5595 29.4168 24.1162 30.3885ZM37.3712 27.3409C37.2382 28.4009 36.9722 29.4168 36.5732 30.3885C35.9969 31.7578 35.199 32.9504 34.135 34.0104C33.0711 35.0705 31.8741 35.8656 30.4999 36.4398C29.5246 36.8373 28.505 37.1023 27.441 37.2348V27.3409H37.3712ZM27.441 2.42932H37.4599C37.3269 3.48938 37.0609 4.50528 36.6619 5.52117C36.0856 6.89043 35.2433 8.12717 34.2237 9.18723C33.1597 10.2473 31.9185 11.0423 30.5442 11.6166C29.6132 12.0141 28.638 12.2349 27.6183 12.3674H27.441V2.42932ZM27.3524 15.2384C27.3524 15.1059 27.3967 15.0176 27.3967 14.8851C27.5297 14.8851 27.707 14.8409 27.84 14.8409H37.3712C37.2382 15.901 36.9722 16.9169 36.5732 17.9328C35.9969 19.302 35.1546 20.5388 34.135 21.5988C33.0711 22.6589 31.8298 23.454 30.4555 24.0282C29.4802 24.4257 28.4163 24.6907 27.3524 24.8232V15.2384Z" fill="#2144EB"/>
<path d="M125.413 24.0717C125.147 23.8067 124.97 23.5859 124.748 23.4092C121.733 20.6707 116.635 20.8032 113.577 23.7184C110.385 26.7219 109.853 32.1547 112.291 35.9091C115.261 40.5028 122.044 40.9003 125.236 37.2342C125.28 37.1901 125.324 37.1901 125.413 37.1459V39.2218H129.669V21.9074H125.369V24.0717H125.413ZM125.413 30.6088C125.413 31.448 125.413 32.2431 125.413 33.0823C125.413 33.259 125.369 33.4357 125.28 33.5682C123.285 36.13 119.872 36.3508 117.611 35.1141C115.837 34.1424 115.172 32.5523 115.172 30.6088C115.128 28.0028 116.502 26.1477 118.852 25.4852C121.201 24.8226 123.728 25.6177 125.236 27.517C125.324 27.6495 125.413 27.8261 125.413 28.0028C125.413 28.8862 125.413 29.7696 125.413 30.6088Z" fill="#2144EB"/>
<path d="M88.041 24.1164C86.445 22.3496 84.5831 21.5104 82.3222 21.4662C79.4407 21.4221 77.0468 22.4379 75.3179 24.7347C73.5003 27.1199 73.057 29.8584 73.6333 32.7736C74.3426 36.3513 76.9582 38.9573 80.549 39.5756C83.3418 40.0615 85.8687 39.399 87.8636 37.2347C87.908 37.1905 87.9523 37.1905 88.041 37.1021V39.2223H92.2524V21.9079H88.041V24.1164ZM88.041 33.0827C88.041 33.2594 87.9966 33.4361 87.8636 33.5686C86.0904 35.9096 82.4996 36.5721 80.017 35.0262C78.7757 34.2753 78.1108 33.1269 77.8448 31.7135C77.5788 30.1676 77.7561 28.6658 78.6871 27.3407C79.8397 25.7065 81.5243 25.1764 83.4748 25.2648C85.2038 25.3531 86.6667 26.104 87.775 27.4291C87.908 27.6058 88.041 27.8708 88.041 28.1358C88.0853 28.9308 88.041 29.77 88.041 30.5651C88.041 31.4043 88.041 32.2435 88.041 33.0827Z" fill="#2144EB"/>
<path d="M167.571 22.1286C165.842 21.4219 164.024 21.3336 162.162 21.6427C159.99 21.9961 158.128 22.9237 156.754 24.6463C154.937 26.8547 154.405 29.4165 154.848 32.1992C155.336 35.2469 156.976 37.4995 159.813 38.7804C162.428 39.973 165.177 40.0614 167.97 39.3988C169.433 39.0455 170.718 38.3829 171.915 37.4554C171.383 36.3953 170.851 35.3352 170.319 34.231C170.186 34.3193 170.098 34.3635 170.009 34.4077C168.28 35.6444 166.374 36.1745 164.246 35.9978C163.049 35.9094 161.941 35.6444 160.966 34.9377C160.079 34.3193 159.503 33.5243 159.192 32.4201H172.713C172.891 31.095 172.846 29.8582 172.625 28.6215C172.093 25.5738 170.541 23.277 167.571 22.1286ZM159.148 29.1074C159.414 26.5897 161.631 24.9113 164.379 25.088C166.729 25.2646 168.635 27.0756 168.546 29.1074H159.148Z" fill="#2144EB"/>
<path d="M61.1772 35.6003C59.005 35.0702 57.6307 33.2151 57.5864 30.6533C57.542 28.224 58.6947 26.3247 60.9556 25.618C63.0835 24.9554 65.8763 25.3088 67.2506 27.959C68.4032 27.3406 69.5558 26.678 70.7528 26.0597C70.2208 24.9113 69.4672 23.9837 68.4919 23.2328C66.763 21.9077 64.7681 21.4219 62.6402 21.4219C60.7782 21.4219 59.005 21.8194 57.3647 22.7911C53.0646 25.353 52.1336 31.1833 54.3945 35.2027C55.8131 37.6762 58.0297 39.0455 60.7782 39.4872C63.2165 39.8847 65.6104 39.6639 67.7826 38.3829C69.1125 37.5879 70.1322 36.4837 70.7971 35.0261C69.6002 34.3635 68.4476 33.7452 67.2949 33.1268C66.1423 35.6003 63.6598 36.1745 61.1772 35.6003Z" fill="#2144EB"/>
<path d="M148.821 21.8634C148.466 21.8634 148.333 21.9517 148.2 22.2609C146.56 26.1037 144.875 29.9022 143.235 33.745C143.191 33.8775 143.102 34.01 143.013 34.1867C142.88 33.8775 142.792 33.7008 142.703 33.48C141.063 29.7256 139.467 25.9711 137.826 22.2167C137.782 22.0842 137.605 21.8634 137.472 21.8634C136.053 21.8192 134.59 21.8634 133.083 21.8634C133.127 22.0401 133.172 22.2167 133.216 22.3492C135.743 27.8704 138.225 33.4358 140.752 38.957C140.885 39.222 141.018 39.3103 141.329 39.3103C142.481 39.3103 143.634 39.3103 144.786 39.3103C145.097 39.3103 145.23 39.222 145.363 38.957C147.845 33.4358 150.328 27.9588 152.855 22.4376C152.899 22.3051 152.943 22.1284 153.032 21.9075C151.569 21.9075 150.195 21.9076 148.821 21.8634Z" fill="#2144EB"/>
<path d="M181.536 13.7373H177.28V39.2672H181.536V13.7373Z" fill="#2144EB"/>
<path d="M102.05 24.7793V21.9083H97.7939V39.2669H102.05V38.7368C102.05 35.7775 102.05 32.774 102.05 29.8146C102.05 29.4171 102.138 29.0637 102.404 28.7545C103.38 27.3853 104.754 26.5461 106.35 26.1486C107.103 25.9719 107.946 25.9277 108.744 25.7952V21.5108C105.951 21.4224 103.734 22.5267 102.05 24.7793Z" fill="#2144EB"/>
</svg>
